Input File     : 'mp3/abc.mp3'
Channels       : 2
Sample Rate    : 44100
Precision      : 16-bit
Duration       : 00:00:07.05 = 311037 samples = 528.974 CDDA sectors
File Size      : 282k
Bit Rate       : 320k
Sample Encoding: MPEG audio (layer I, II or III)


Output File    : '' (null)
Channels       : 2
Sample Rate    : 44100
Precision      : 16-bit
Duration       : 00:00:07.05 = 311037 samples = 528.974 CDDA sectors

D:\sox\sox-14-4-2\sox.exe INFO sox: effects chain: input        44100Hz  2 channels
D:\sox\sox-14-4-2\sox.exe INFO sox: effects chain: output       44100Hz  2 channels



Input File     : 'mp3/201904141716089478.wav'
Channels       : 1
Sample Rate    : 8000
Precision      : 16-bit
Duration       : 00:00:00.68 = 5439 samples ~ 50.9906 CDDA sectors
File Size      : 10.9k
Bit Rate       : 129k
Sample Encoding: 16-bit Signed Integer PCM
Endian Type    : little
Reverse Nibbles: no
Reverse Bits   : no


Output File    : '' (null)
Channels       : 1
Sample Rate    : 8000
Precision      : 16-bit
Duration       : 00:00:00.68 = 5439 samples ~ 50.9906 CDDA sectors

D:\sox\sox-14-4-2\sox.exe INFO sox: effects chain: input         8000Hz  1 channels
D:\sox\sox-14-4-2\sox.exe INFO sox: effects chain: output        8000Hz  1 channels


Input File     : 'mp3/N_243_869256963_1004_17602525195_20190416_175549_2898272 (2).mp3'
Channels       : 1
Sample Rate    : 8000
Precision      : 16-bit
Duration       : 00:00:13.39 = 107136 samples ~ 1004.4 CDDA sectors
File Size      : 13.4k
Bit Rate       : 8.00k
Sample Encoding: MPEG audio (layer I, II or III)


Output File    : '' (null)
Channels       : 1
Sample Rate    : 8000
Precision      : 16-bit
Duration       : 00:00:13.39 = 107136 samples ~ 1004.4 CDDA sectors

D:\sox\sox-14-4-2\sox.exe INFO sox: effects chain: input         8000Hz  1 channels
D:\sox\sox-14-4-2\sox.exe INFO sox: effects chain: output        8000Hz  1 channels